<svg
  xmlns="http://www.w3.org/2000/svg"
  viewBox="0 0 512 512"
  fill="none"
  style="width: 20px; height: 20px"
>
  <g><path fill="#ce0145" d="M127.5 42.5H256.5V43.5H255.5L158.5 172.5H156.5L127.5 42.5Z"/></g>
  <g><path fill="#fd7d51" d="M127.5 42.5L156.5 172.5V173.5H-0.5V172.5L127.5 42.5Z"/></g>
  <g><path fill="#a00031" d="M256.5 42.5H383.5L354.5 171.5H353.5L256.5 43.5V42.5Z"/></g>
  <g><path fill="#f43140" d="M383.5 42.5L511.5 172.5V173.5H354.5L383.5 42.5Z"/></g>
  <g><path fill="#fd7d51" d="M255.5 43.5V173.5H158.5L255.5 43.5Z"/></g>
  <g><path fill="#f43241" d="M255.5 43.5H256.5L353.5 172.5V173.5H255.5V43.5Z"/></g>
  <g><path fill="#b10a34" d="M354.5 171.5L511.5 173.5V175.5H510.5L353.5 174.5V172.5L354.5 171.5Z"/></g>
  <g><path fill="#ce0044" d="M-0.5 173.5H156.5L255.5 468.5L-0.5 175.5V173.5Z"/></g>
  <g><path fill="#f43141" d="M156.5 173.5H158.5L255.5 173.5V466.5L156.5 173.5Z"/></g>
  <g><path fill="#ce0044" d="M255.5 173.5H353.5V174.5L256.5 467.5L255.5 466.5V173.5Z"/></g>
  <g><path fill="#a00031" d="M353.5 174.5L510.5 175.5L256.5 467.5L353.5 174.5Z"/></g>
</svg>

