<svg id="圖層_1" data-name="圖層 1" xmlns="http://www.w3.org/2000/svg" viewBox="0 0 455.8 455.8"><defs><style>.cls-1{fill:currentColor;}</style></defs><path class="cls-1" d="M238,28.1h34c.28,1.1,1.18.91,2,1a205.88,205.88,0,0,1,38.31,6.23,227.89,227.89,0,0,1,168.88,186.4c.89,5.77.49,11.76,2.75,17.32v35c-1.35.4-.95,1.56-1,2.47A268.89,268.89,0,0,1,478,306.94C458.39,396.64,381.45,468,290.3,481.13c-6.1.88-12.39.68-18.31,2.77H238c-.38-1.36-1.55-.92-2.45-1-6.58-.93-13.19-1.65-19.73-2.81C120,463.1,45.09,386.15,30.86,290.3c-.81-5.44-.43-11.12-2.76-16.31V238c1.35-.39.91-1.56,1-2.46,1-6.74,1.7-13.52,2.87-20.22C48.73,120.19,126.5,44.66,221.7,30.86,227.14,30.07,232.82,30.43,238,28.1Zm-43.4,420.24c.39.1,1,.36,1.12.25.36-.55-.14-.69-.56-.81-15.86-22.88-26.61-48.1-34-74.82-.69-2.48-1.93-2.55-4-2.33-11.74,1.23-23.52,2.23-35.25,3.54-8.88,1-17.72,2.34-27.15,3.61a192.4,192.4,0,0,0,32.44,34C147.32,428.26,169.56,440.9,194.61,448.34Zm122.84.12c40.56-12.84,73.37-36.6,99.64-70.26a15.71,15.71,0,0,0-2.29-.76c-20.11-2.78-40.26-5.17-60.49-6.92-3-.26-3.14,1.44-3.67,3.42a248,248,0,0,1-15.73,42.4c-5.23,11-11.88,21.08-18,31.49-.41.1-.94.22-.58.76C316.39,448.73,317.05,448.51,317.45,448.46Zm0-384.91c-.41-.06-1.06-.3-1.18-.14-.38.51.12.69.55.83,15.94,22.84,26.57,48.12,34,74.81.7,2.49,2,2.53,4,2.32,11.74-1.23,23.52-2.24,35.25-3.55,8.88-1,17.72-2.34,27.33-3.62C390.8,100.15,358,76.37,317.45,63.55Zm-122.84.11c-19.05,5.4-36.39,14.4-52.69,25.46A197.64,197.64,0,0,0,95,133.83a13.92,13.92,0,0,0,2.18.72q30.17,4.22,60.49,6.92c3,.27,3.13-1.44,3.66-3.42a249.53,249.53,0,0,1,16-42.86c5.16-10.8,11.84-20.71,17.8-31,.41-.09.93-.14.61-.73C195.66,63.33,195,63.57,194.61,63.66ZM256.2,268.87c-26.63,0-53.26.1-79.88-.1-3.89,0-4.57,1.06-4.44,4.7a455.24,455.24,0,0,0,7.47,65.85c.57,3.15,1.89,3.83,4.88,3.67,14.78-.8,29.57-1.65,44.37-2,33-.73,65.89-.42,98.78,2,3.62.26,4.81-.84,5.42-4.26a469,469,0,0,0,7.34-65.38c.13-3.84-.89-4.6-4.56-4.58C309.12,269,282.66,268.87,256.2,268.87Zm-.33-25.74c26.66,0,53.31-.07,80,.08,3.48,0,4.41-.77,4.29-4.34a451.73,451.73,0,0,0-7.55-66.42c-.55-2.95-1.71-3.63-4.56-3.46-13.13.79-26.27,1.62-39.42,1.91-34.65.79-69.3.61-103.89-1.88-3.45-.25-4.88.56-5.52,4.15a470,470,0,0,0-7.33,65.44c-.13,3.82.84,4.63,4.55,4.61C202.89,243.05,229.38,243.13,255.87,243.13ZM256,145.9c21.81-.16,43.61-1,65.41-1.9,3.69-.15,4-1.2,3-4.45a196.67,196.67,0,0,0-15.17-37.84c-7.24-13.5-14.59-27-26.92-36.76-7.11-5.64-14.6-10.44-24.09-11-13.42-.72-23.65,5.66-32.6,14.66-20,20.08-30,45.53-38.37,71.83-1.13,3.55,1,3.34,3.28,3.45C212.37,145,234.17,145.78,256,145.9Zm.32,220.2c-22,.14-43.95.94-65.91,1.92-3.27.14-3.88,1-3,4.15a208,208,0,0,0,19.42,45.73c7,12.15,14.59,23.86,26.51,32,6.85,4.68,14,8.25,22.57,8.16,12.58-.12,22.14-6.38,30.54-14.87,19.91-20.12,29.89-45.57,38.27-71.87,1-3.19-.82-3.15-3-3.26C299.93,367,278.13,366.21,256.31,366.1Zm-155.79-123c13.48,0,27-.16,40.46.09,3.93.08,5.26-.64,5.38-5a442.87,442.87,0,0,1,6.86-65c1.17-6.57,1.2-6.56-5.44-7.13q-32.07-2.74-63.87-7.85c-3.57-.57-5.26.39-6.9,3.56a207.2,207.2,0,0,0-22.59,78c-.31,3.48,1.29,3.3,3.64,3.29C72.21,243.1,86.36,243.13,100.52,243.13Zm311.05,0H454c1.9,0,3.87.62,3.57-2.85a205,205,0,0,0-23.4-79.76c-1.16-2.18-2.44-2.73-4.7-2.37-22.51,3.63-45.13,6.31-67.84,8.26-3.18.27-4.16,1.26-3.49,4.56a418.22,418.22,0,0,1,7.52,67.88c.12,3.39.87,4.44,4.42,4.38C383.93,243,397.75,243.13,411.57,243.13Zm.44,25.74c-13.82,0-27.64.11-41.45-.07-3.41-.05-4.79.41-4.91,4.41a448.57,448.57,0,0,1-6.79,65c-1.26,7.14-1.22,7.08,5.82,7.69,21.22,1.81,42.36,4.35,63.37,7.8,3.55.58,5.28-.33,6.92-3.52a207.88,207.88,0,0,0,22.59-78c.3-3.44-1.19-3.34-3.59-3.33C440,268.9,426,268.87,412,268.87Zm-311.91,0c-14,0-28,0-42,0-1.71,0-4.07-1-3.75,2.66a204.32,204.32,0,0,0,23.34,79.78c1.1,2,2.21,2.92,4.61,2.54q34-5.37,68.34-8.32c3.17-.28,3.76-1.4,3.17-4.35a418.8,418.8,0,0,1-7.56-68.37c-.12-3.3-1.06-4.08-4.23-4C128.07,269,114.09,268.87,100.1,268.87Z" transform="translate(-28.1 -28.1)"/></svg>