<svg id="圖層_3" data-name="圖層 3" xmlns="http://www.w3.org/2000/svg" viewBox="0 0 445.14 333.64"><defs><style>.cls-1{fill:currentColor;}</style></defs><path class="cls-1" d="M478.57,127.89c-1.2,3.08-2,6.36-3.65,9.2-5.11,9-13.05,13.63-23.36,14.23-.87.05-1.74,0-2.61,0H63.11C49,151.35,38,143.56,34.49,131.2A27.79,27.79,0,0,1,52.13,97.33c1.32-.47,2.61-1,3.91-1.58h399c3.91,1.71,8.06,3,11.65,5.22,6.71,4.13,9.81,10.91,11.83,18.23Z" transform="translate(-33.43 -95.75)"/><path class="cls-1" d="M478.57,266.91c-1.2,3.07-2,6.35-3.65,9.19-5.11,9-13.06,13.64-23.38,14.24-1,.05-2,0-3,0H63.39c-15.39,0-26.45-8.48-29.36-22.43A27.77,27.77,0,0,1,59.5,234.82c1.88-.1,3.77-.06,5.65-.06H444.61c20.15,0,26.82,4.61,34,23.46Z" transform="translate(-33.43 -95.75)"/><path class="cls-1" d="M478.57,405.92c-1.2,3.08-2,6.36-3.65,9.2-5.11,9-13.06,13.63-23.38,14.23-1,.06-2,0-3,0H63.39C48,429.37,36.94,420.9,34,406.94a27.76,27.76,0,0,1,25.47-33.1c1.88-.11,3.77-.07,5.65-.07H444.61c20.15,0,26.82,4.61,34,23.46Z" transform="translate(-33.43 -95.75)"/></svg>