<?xml version="1.0" standalone="no"?>
<!DOCTYPE svg PUBLIC "-//W3C//DTD SVG 20010904//EN"
 "http://www.w3.org/TR/2001/REC-SVG-20010904/DTD/svg10.dtd">
<svg version="1.0" xmlns="http://www.w3.org/2000/svg"
 width="512.000000pt" height="512.000000pt" viewBox="0 0 512.000000 512.000000"
 preserveAspectRatio="xMidYMid meet">

<g transform="translate(0.000000,512.000000) scale(0.100000,-0.100000)"
fill="currentColor" stroke="none">
<path d="M2315 5109 c-800 -83 -1501 -518 -1927 -1196 -604 -961 -490 -2237
274 -3068 425 -462 951 -737 1583 -827 119 -17 512 -16 635 1 622 86 1148 360
1572 820 349 378 572 861 650 1406 17 118 17 512 0 630 -59 416 -191 769 -410
1099 -92 140 -185 254 -315 385 -399 404 -893 653 -1462 737 -123 18 -478 26
-600 13z m200 -1229 c430 -49 799 -329 955 -724 52 -133 71 -227 77 -386 8
-225 -30 -396 -131 -587 l-47 -86 250 -251 c275 -278 284 -290 260 -378 -16
-61 -166 -211 -227 -227 -88 -24 -100 -15 -378 260 l-251 250 -86 -47 c-324
-171 -714 -180 -1045 -23 -155 74 -328 218 -437 364 -65 86 -151 265 -179 374
-79 297 -47 579 95 851 165 315 488 549 829 599 155 23 195 24 315 11z"/>
<path d="M2300 3461 c-168 -24 -301 -91 -426 -216 -103 -102 -157 -195 -195
-331 -27 -99 -30 -256 -6 -356 61 -250 246 -451 492 -534 108 -36 267 -44 381
-20 163 36 334 142 429 268 185 243 206 573 55 830 -100 169 -278 300 -463
343 -81 18 -198 25 -267 16z"/>
</g>
</svg>
