<svg id="圖層_2" data-name="圖層 2" xmlns="http://www.w3.org/2000/svg" viewBox="0 0 459.9 459.86"><defs><style>.cls-1{fill:currentColor;}</style></defs><path class="cls-1" d="M273.07,485.93H237.14c-.66-1.54-2.06-.85-3.12-1-24.84-2.59-49-8.26-71.53-19-75.05-35.65-120-94.35-134-176.46-.83-4.9-.41-10-2.45-14.69V237.11c1.54-.66.85-2.07,1-3.13,4.77-46.62,21.15-88.77,51.78-124.2,60-69.44,136-96.34,226.11-78.23,102.2,20.55,178,112.36,180.94,216.31,1.36,48.29-10.39,93.11-37.18,133.38q-57,85.72-159.1,102.23C284.07,484.35,278.41,484.08,273.07,485.93Zm-17.35-50.19A174.31,174.31,0,0,0,291.86,432c40.61-8.52,74.38-28.66,101.41-60.11,5.6-6.52,7-13.93,4.84-22.21q-12.39-47.32-50.4-78.07c-8.79-7.13-18.83-7.44-28.12-.92a90.46,90.46,0,0,1-14.13,8.62C266.52,297,229,295,193.07,271.12c-10.47-7-19.85-6.88-29.56,1.06Q126.43,302.51,114,348.81c-2.43,8.95-.85,16.72,5.32,23.74C155.51,413.73,201.16,434.35,255.72,435.74Zm.46-339.66c-45.12-.25-82.52,36.71-82.75,81.77-.23,45.57,36.48,83,81.7,83.35a82.76,82.76,0,0,0,83.42-82.51C338.75,133.41,301.79,96.33,256.18,96.08Z" transform="translate(-26.05 -26.07)"/></svg>