<?xml version="1.0" standalone="no"?>
<!DOCTYPE svg PUBLIC "-//W3C//DTD SVG 20010904//EN"
 "http://www.w3.org/TR/2001/REC-SVG-20010904/DTD/svg10.dtd">
<svg version="1.0" xmlns="http://www.w3.org/2000/svg"
 width="512.000000pt" height="512.000000pt" viewBox="0 0 512.000000 512.000000"
 preserveAspectRatio="xMidYMid meet">

<g transform="translate(0.000000,512.000000) scale(0.100000,-0.100000)"
fill="#000000" stroke="none">
<path d="M2411 4593 c-71 -219 -200 -614 -286 -878 -85 -263 -162 -489 -170
-502 -8 -12 -30 -31 -48 -40 -30 -17 -97 -18 -966 -23 -638 -3 -935 -8 -938
-15 -2 -6 9 -22 24 -36 16 -14 341 -252 723 -529 382 -276 714 -522 738 -546
40 -41 47 -60 43 -119 -1 -11 -128 -411 -283 -888 -210 -647 -278 -871 -270
-879 8 -8 18 -8 35 -1 12 6 347 246 742 534 396 287 739 530 763 538 38 14 46
14 85 0 23 -8 371 -254 774 -547 402 -293 739 -532 747 -532 9 0 19 6 22 13 2
7 -121 401 -275 874 -153 473 -280 871 -281 884 -5 54 1 79 26 109 15 17 347
263 738 547 391 284 723 528 739 542 15 14 26 30 24 36 -3 7 -300 12 -938 15
-869 5 -936 6 -966 23 -18 9 -40 28 -48 40 -8 13 -85 239 -170 502 -411 1265
-414 1275 -435 1275 -17 0 -38 -57 -149 -397z"/>
</g>
</svg>
