<svg id="圖層_1" data-name="圖層 1" xmlns="http://www.w3.org/2000/svg" viewBox="0 0 478.13 99.4"><defs><style>.cls-1{fill:currentColor;}.cls-2{fill:currentColor;}</style></defs><path class="cls-1" d="M365.73,223.89c-3.45,0-6.9,0-10.2,1.4a15,15,0,0,0-7,5.32,16.67,16.67,0,0,0-2.36,6.83,13.63,13.63,0,0,0,1.38,8.65c1.94,3.75,5.4,5.85,8.9,7.82,2.8,1.58,5.9,2.56,8.7,4.19,2.39,1.4,3.28,3.23,2.69,5.86-.06.27-.07.66-.37.66-2,0-4,1.41-6.08.51a6.25,6.25,0,0,0-1.75-.35c-2.33-.29-4.6-.59-5.64-3.25a17.89,17.89,0,0,0-1.94-3.16c-.29-.42-.65-1.13-1.26-.76-1,.58-2,.29-3,.55s-2,.22-2.06,1.48a92.5,92.5,0,0,0-.75,11.28,1.62,1.62,0,0,0,1.25,1.69,47.61,47.61,0,0,0,6.82,1.37c4,.34,8,.92,12.06.27,3.52-.56,6.91-1.15,10.08-2.83a13.84,13.84,0,0,0,5.31-4.82c1.8-2.78,2.12-5.81,2-9a9.73,9.73,0,0,0-2.65-6.45c-2-2.25-4.74-3.59-7.33-5-3.2-1.76-6.55-3.24-9.7-5.06-1.69-1-3.6-2-3.75-4.37-.2-3.27-.19-3.4,3-3.5,2.15-.07,4.39-.29,6.46.52,2.34.91,3.24,3.26,4.59,5.1s4.93,2.59,6.69.95a1.38,1.38,0,0,0,.6-1.12c-.3-3.57.76-7.06.71-10.62a1.74,1.74,0,0,0-1.24-1.85c-1.62-.56-3.26-1-4.92-1.49A37.74,37.74,0,0,0,365.73,223.89Z" transform="translate(-15.87 -193.1)"/><path class="cls-1" d="M160,273.52v.06c3.62,0,7.23-.05,10.84,0,1.25,0,1.6-.54,1.72-1.64.31-2.78.19-5.27-3.18-6.12-.3-.08-.54-.36-.83-.51a3.27,3.27,0,0,1-1.95-3.28c.06-2.52.07-5,0-7.56a5.1,5.1,0,0,1,1.08-3.16c2.76-4,5.45-8.06,8.28-12,1.45-2,2.28-4.71,4.41-6,2.46-1.44,2.51-3.35,2.31-5.62a7.32,7.32,0,0,1,0-1.48c.18-1.36-.51-1.65-1.72-1.64q-7.56.07-15.11,0c-1.37,0-1.69.63-1.87,1.88-.46,3.13-.29,5.67,3.66,6.29,1.14.18,1.33,1.47.68,2.54-1.67,2.76-3.33,5.54-5,8.3-.31.51-.64,1.09-1.32,1.07s-1-.65-1.26-1.15c-1.59-2.77-3.12-5.58-4.77-8.31-1.31-2.16-1-2.88,1.58-3.26,1.37-.2,2-1,1.55-2.28a10.29,10.29,0,0,1-.46-3.72c0-1-.37-1.35-1.34-1.35-6.3,0-12.6,0-18.89,0-.42,0-.85-.08-1.15.41a6.17,6.17,0,0,0,.34,5.72,54.41,54.41,0,0,1,4.32,5.9c2.59,4.29,5.15,8.61,7.94,12.77,2.21,3.31,4.26,6.55,3.55,10.77a11.76,11.76,0,0,0,0,2c0,2.76,0,2.76-2.83,3.27-3.24.59-3.24.59-3.2,3.82a16.06,16.06,0,0,1,0,2.3c-.19,1.59.6,2,2,2C152.88,273.49,156.44,273.52,160,273.52Z" transform="translate(-15.87 -193.1)"/><path class="cls-1" d="M464.23,235.42h0c-2.52,0-5,0-7.55,0-.9,0-1.68.29-1.8,1.06-.27,1.7-.59,3.49.86,4.94a4.91,4.91,0,0,1,.91,1.13,104.11,104.11,0,0,1,4.61,11.35c2.15,5.68,4.26,11.37,6.46,17,.57,1.48.68,2.74-.69,4-2,1.76-3.87,3.69-5.78,5.55-.51.5-.84,1-.21,1.69,2.52,2.63,4.79,5.5,7.77,7.65.73.53,1.27.49,1.75-.3.91-1.53,1.88-3,2.78-4.58,4.28-7.43,7.81-15.24,11.41-23,2.4-5.19,4.77-10.39,7.27-15.53,1.47-3,2.61-6,1.59-9.5-.3-1-.73-1.44-1.8-1.43-3.44,0-6.89,0-10.34,0a1.83,1.83,0,0,0-1.5.46c-.57.6-.94,5.2-.42,5.84.28.36.69.23,1.05.32,1.84.44,2.57,1.36,2,2.77-1.77,4.55-3.83,9-5.35,13.65a1.34,1.34,0,0,1-1.2,1c-.73,0-.6-.6-.74-1.05-.53-1.64-1.11-3.26-1.66-4.9-1-2.94-2-5.87-3-8.83-.42-1.32.13-2.53,1.49-2.5,2.07,0,2-1.1,1.86-2.49-.06-.71-.05-1.42-.06-2.13,0-1.46-.65-2.2-2.21-2.15C469.27,235.47,466.75,235.42,464.23,235.42Z" transform="translate(-15.87 -193.1)"/><path class="cls-1" d="M389.83,254.93h0c0,3.12-.17,6.25.05,9.36a10.66,10.66,0,0,0,3.09,7.29c2.46,2.38,5.58,2.86,8.66,3,3.81.18,7.52-.9,11.14-2.06.74-.24,1.73-.92,1.48-1.73-.5-1.62-.23-3.27-.5-4.87-.14-.88-.5-1.44-1.65-1.32-1.79.19-3.61.1-5.41.19-3.85.17-4.59-1.55-4.79-4.88-.28-4.8,0-9.63-.1-14.45,0-1.2.48-1.48,1.56-1.46,2.9,0,5.81,0,8.71,0,1.8,0,2.45-.68,2.11-2.5a9.74,9.74,0,0,1,.05-3.57c.36-1.88-.21-2.52-2.13-2.54-2.68,0-5.37,0-8.05,0-2.22,0-2.22,0-2.23-2.3,0-1.53,0-3.06,0-4.6,0-.37.09-.78-.27-1.06a4.66,4.66,0,0,0-4.87.09c-3.73,3.44-7.43,6.92-11.15,10.37a3,3,0,0,0-1,2.44c0,4-.31,3.74,3.59,3.65,1.28,0,1.75.46,1.72,1.73C389.8,248.8,389.83,251.86,389.83,254.93Z" transform="translate(-15.87 -193.1)"/><path class="cls-1" d="M321.66,251.13c0-2.46,0-4.93,0-7.39s.32-4.85-.58-7.26c-.37-1-.62-1.21-1.63-1.24-4.12-.13-8,1.15-12.09,1.56-.82.08-2.14.22-2.29,1.13a13.85,13.85,0,0,0,0,4.89c.19,1,1.57,1.22,2.44,1.7a3.72,3.72,0,0,1,2.12,3.56c0,5.14,0,10.29,0,15.44a2.36,2.36,0,0,1-2.07,2.51c-3.32.76-3.35.72-3.29,4,.06,3.88-.33,3.66,3.51,3.46.6,0,1.2,0,1.81,0l15.26.07c.54,0,1.12.13,1.42-.52,1.31-2.94.63-4.74-2.19-6.34a4.14,4.14,0,0,1-2.49-4C321.77,258.8,321.66,255,321.66,251.13Z" transform="translate(-15.87 -193.1)"/><path class="cls-1" d="M311.54,230.65c.72.11,1.28-.54,2-.7,2.78-.6,5.52-1.33,8.25-2.08.6-.17.76-.67.62-1.43a57.61,57.61,0,0,0-2-7.77c-.81-2.35-.93-2.36-3.33-1.59-2.6.84-5.24,1.54-7.89,2.19-1.45.35-2,1.08-1.44,2.47a70,70,0,0,1,2,6.78C310,229.35,309.91,230.73,311.54,230.65Z" transform="translate(-15.87 -193.1)"/><path class="cls-2" d="M277.8,290.12c-4.6.27-8.9-.24-12.81-2.64a8,8,0,0,1-4.12-6.56,11.21,11.21,0,0,1,3.51-9.24,1.85,1.85,0,0,0,.48-2.37c-1.3-2-.42-3.74.31-5.52a10.07,10.07,0,0,1,1.43-2.52,1.63,1.63,0,0,0-.46-2.62c-2.33-1.53-3.36-3.83-4-6.55a14.51,14.51,0,0,1,.14-7.38,11.57,11.57,0,0,1,6.8-8,24.73,24.73,0,0,1,12.12-1.94,27.23,27.23,0,0,1,7.14,1.35c1.51.55,2.72-.17,4.05-.49,2.49-.59,4.8-1.91,7.52-1.68,1.23.1,1.78.42,1.74,1.72-.06,2.41-.05,4.82,0,7.23,0,1.29-.55,1.72-1.78,1.75-3.57.09-3.63.13-3.56,3.6a12.67,12.67,0,0,1-8.27,12c-4.44,1.45-8.81,2.26-13.41,1.35-.69-.14-1.08.07-1.21.71s-.11,1.48.74,1.75c2.43.79,5,.9,7.48,1.36,4.32.79,8.78,1.05,12.67,3.38a7.52,7.52,0,0,1,4,6.62c0,2.32.17,4.63-1,6.81a13.24,13.24,0,0,1-6.86,5.9A27.47,27.47,0,0,1,277.8,290.12Zm-3.61-42.88c-.25,4.55.39,5.93,3.86,7.23,2.93,1.09,5.54-.57,5.55-3.64,0-1,0-2.08,0-3.12.1-5.23-4.14-6.29-7.77-5.6a2,2,0,0,0-1.65,2.17C274.22,245.27,274.19,246.25,274.19,247.24Zm6.36,34.91a12.09,12.09,0,0,0,4.46-.52,2.37,2.37,0,0,0,1.52-2.92c-.58-2.29-2.34-2.81-4.3-3.37-2.16-.61-4.41-.46-6.57-1.12-3-.91-4.61.39-4.06,3.12a4.54,4.54,0,0,0,2.6,3.5A14.21,14.21,0,0,0,280.55,282.15Z" transform="translate(-15.87 -193.1)"/><path class="cls-2" d="M365.73,223.89a37.74,37.74,0,0,1,9.25.79c1.66.45,3.3.93,4.92,1.49a1.74,1.74,0,0,1,1.24,1.85c.05,3.56-1,7-.71,10.62a1.38,1.38,0,0,1-.6,1.12c-1.76,1.64-5.26,1-6.69-.95s-2.25-4.19-4.59-5.1c-2.07-.81-4.31-.59-6.46-.52-3.22.1-3.23.23-3,3.5.15,2.39,2.06,3.4,3.75,4.37,3.15,1.82,6.5,3.3,9.7,5.06,2.59,1.43,5.28,2.77,7.33,5a9.73,9.73,0,0,1,2.65,6.45c.13,3.2-.19,6.23-2,9a13.84,13.84,0,0,1-5.31,4.82c-3.17,1.68-6.56,2.27-10.08,2.83-4.1.65-8.06.07-12.06-.27a47.61,47.61,0,0,1-6.82-1.37,1.62,1.62,0,0,1-1.25-1.69,92.5,92.5,0,0,1,.75-11.28c.1-1.26,1.23-1.25,2.06-1.48s2,0,3-.55c.61-.37,1,.34,1.26.76a17.89,17.89,0,0,1,1.94,3.16c1,2.66,3.31,3,5.64,3.25a6.25,6.25,0,0,1,1.75.35c2.11.9,4-.47,6.08-.51.3,0,.31-.39.37-.66.59-2.63-.3-4.46-2.69-5.86-2.8-1.63-5.9-2.61-8.7-4.19-3.5-2-7-4.07-8.9-7.82a13.63,13.63,0,0,1-1.38-8.65,16.67,16.67,0,0,1,2.36-6.83,15,15,0,0,1,7-5.32C358.83,223.89,362.28,223.92,365.73,223.89Z" transform="translate(-15.87 -193.1)"/><path class="cls-2" d="M160,273.52c-3.55,0-7.11,0-10.66,0-1.41,0-2.2-.37-2-2a16.06,16.06,0,0,0,0-2.3c0-3.23,0-3.23,3.2-3.82,2.83-.51,2.83-.51,2.83-3.27a11.76,11.76,0,0,1,0-2c.71-4.22-1.34-7.46-3.55-10.77-2.79-4.16-5.35-8.48-7.94-12.77a54.41,54.41,0,0,0-4.32-5.9,6.17,6.17,0,0,1-.34-5.72c.3-.49.73-.41,1.15-.41,6.29,0,12.59,0,18.89,0,1,0,1.38.34,1.34,1.35a10.29,10.29,0,0,0,.46,3.72c.43,1.32-.18,2.08-1.55,2.28-2.6.38-2.89,1.1-1.58,3.26,1.65,2.73,3.18,5.54,4.77,8.31.29.5.57,1.13,1.26,1.15s1-.56,1.32-1.07c1.67-2.76,3.33-5.54,5-8.3.65-1.07.46-2.36-.68-2.54-4-.62-4.12-3.16-3.66-6.29.18-1.25.5-1.89,1.87-1.88q7.56.07,15.11,0c1.21,0,1.9.28,1.72,1.64a7.32,7.32,0,0,0,0,1.48c.2,2.27.15,4.18-2.31,5.62-2.13,1.25-3,3.94-4.41,6-2.83,4-5.52,8-8.28,12a5.1,5.1,0,0,0-1.08,3.16c.09,2.52.08,5,0,7.56a3.27,3.27,0,0,0,1.95,3.28c.29.15.53.43.83.51,3.37.85,3.49,3.34,3.18,6.12-.12,1.1-.47,1.67-1.72,1.64-3.61-.07-7.22,0-10.84,0Z" transform="translate(-15.87 -193.1)"/><path class="cls-2" d="M464.23,235.42c2.52,0,5,.05,7.55,0,1.56-.05,2.19.69,2.21,2.15,0,.71,0,1.42.06,2.13.12,1.39.21,2.52-1.86,2.49-1.36,0-1.91,1.18-1.49,2.5.95,3,2,5.89,3,8.83.55,1.64,1.13,3.26,1.66,4.9.14.45,0,1.06.74,1.05a1.34,1.34,0,0,0,1.2-1c1.52-4.65,3.58-9.1,5.35-13.65.55-1.41-.18-2.33-2-2.77-.36-.09-.77,0-1.05-.32-.52-.64-.15-5.24.42-5.84a1.83,1.83,0,0,1,1.5-.46c3.45,0,6.9,0,10.34,0,1.07,0,1.5.4,1.8,1.43,1,3.46-.12,6.46-1.59,9.5-2.5,5.14-4.87,10.34-7.27,15.53-3.6,7.78-7.13,15.59-11.41,23-.9,1.55-1.87,3.05-2.78,4.58-.48.79-1,.83-1.75.3-3-2.15-5.25-5-7.77-7.65-.63-.65-.3-1.19.21-1.69,1.91-1.86,3.77-3.79,5.78-5.55,1.37-1.22,1.26-2.48.69-4-2.2-5.67-4.31-11.36-6.46-17a104.11,104.11,0,0,0-4.61-11.35,4.91,4.91,0,0,0-.91-1.13c-1.45-1.45-1.13-3.24-.86-4.94.12-.77.9-1.08,1.8-1.06,2.51.06,5,0,7.55,0Z" transform="translate(-15.87 -193.1)"/><path class="cls-2" d="M451.88,255.65c0,2.35.11,4.71,0,7.06a3.56,3.56,0,0,0,1.94,3.47c2.2,1.43,2.77,2.56,2.1,4.93-.49,1.7-2.15,1.4-3.51,1.69a60.31,60.31,0,0,1-7.68,1.28c-1.5.13-2.62,0-2.87-1.95-.15-1.24-1.48-.95-2.14-.53a21.65,21.65,0,0,1-10.18,2.93c-3.48.25-7.05-.48-9.4-3.41a9.44,9.44,0,0,1-1.39-10.27c1.36-3,4-4.79,7-6a29.44,29.44,0,0,1,9.23-2.19c1.56-.12,3.08-.61,4.67-.62.55,0,.85-.4,1-.94a5.79,5.79,0,0,0-3.77-6.48,7.75,7.75,0,0,0-2-.57c-5.93.09-4.41-.87-7.42,4.42a2.43,2.43,0,0,1-2.45,1.6c-3.75-.07-3.47-.11-4.46-3.74-.66-2.41-.06-4.9-1-7.24-.33-.79.28-1.49,1.26-1.75,2.09-.54,4.17-1.07,6.31-1.44,4.08-.73,8.17-1.5,12.29-1.07,2.9.31,5.91.46,8.43,2.46a9.24,9.24,0,0,1,3.54,5.95A64.5,64.5,0,0,1,451.88,255.65ZM434,266.09a16.18,16.18,0,0,0,2,0c3.85-.49,5-2,4.66-5.81-.09-1.08-.61-1.49-1.67-1.59-2.76-.29-5.4.53-8.1.81a1.75,1.75,0,0,0-1.69,2C429.25,264.65,430.79,266.23,434,266.09Z" transform="translate(-15.87 -193.1)"/><path class="cls-2" d="M219.47,255.8a21.84,21.84,0,0,1,3.25-13.05,16.65,16.65,0,0,1,11.56-7.53,25.9,25.9,0,0,1,10.05.2,14.49,14.49,0,0,1,9.31,5.63c3.16,4.34,4,9.25,3.76,14.29-.24,5.77-1.84,11.15-6.58,15.12a16.35,16.35,0,0,1-7.57,3.54,26.36,26.36,0,0,1-5.83.73,21.86,21.86,0,0,1-10.86-2.8,13,13,0,0,1-5.72-7.25A22.43,22.43,0,0,1,219.47,255.8Zm25.28.16c.67-2.16-.33-4.29-.61-6.48a6.3,6.3,0,0,0-6.48-5.55c-1.09,0-2.19.11-3.27,0a1.92,1.92,0,0,0-2.2,1.73c-.17,1.3-.62,2.55-.7,3.83a28.26,28.26,0,0,0,1.23,11.54c1.37,3.76,3.89,5.55,7.86,5,1.29-.19,3.37-.22,3.49-2C244.25,261.35,245.36,258.79,244.75,256Z" transform="translate(-15.87 -193.1)"/><path class="cls-2" d="M200.85,264.76c3.27.2,6.07-.82,8.88-1.78.9-.31,1.37-.3,1.79.84.58,1.59.46,3.3,1.13,4.86.37.88-.25,1.57-1,2a30,30,0,0,1-6.57,2.74c-2.06.69-4.2.44-6.25,1.05-2.41.71-4.83-.14-7.1-.65a14.75,14.75,0,0,1-9.91-7.72,19.25,19.25,0,0,1-1.89-5.45,25.66,25.66,0,0,1-.54-6.46c.26-5.18,1.48-10.14,5-14a15.07,15.07,0,0,1,9-4.86,22.12,22.12,0,0,1,5.5-.58c5.81.51,10.68,2.67,13.4,8.12a25.26,25.26,0,0,1,2.43,10.84,1.41,1.41,0,0,1-1.31,1.6c-2.92.26-5.71,1.17-8.64,1.48s-5.61,1.14-8.41,1.73c-.42.09-.87.1-1.3.16-.66.1-1.54-.19-1.81.74a2.48,2.48,0,0,0,.6,2.26A7,7,0,0,0,200.85,264.76ZM192,249c-.06,2.45.08,2.72,1.65,2.37,2.66-.6,5.3-1.34,7.92-2.11.72-.21,1-.82.84-1.69-.62-3.11-6.27-5.27-8.92-3.36a1.62,1.62,0,0,0-.65.91C192.61,246.49,191.62,247.71,192,249Z" transform="translate(-15.87 -193.1)"/><path class="cls-2" d="M389.83,254.93c0-3.07,0-6.13,0-9.2,0-1.27-.44-1.75-1.72-1.73-3.9.09-3.54.38-3.59-3.65a3,3,0,0,1,1-2.44c3.72-3.45,7.42-6.93,11.15-10.37a4.66,4.66,0,0,1,4.87-.09c.36.28.27.69.27,1.06,0,1.54,0,3.07,0,4.6,0,2.3,0,2.3,2.23,2.3,2.68,0,5.37,0,8.05,0,1.92,0,2.49.66,2.13,2.54a9.74,9.74,0,0,0-.05,3.57c.34,1.82-.31,2.5-2.11,2.5-2.9,0-5.81,0-8.71,0-1.08,0-1.57.26-1.56,1.46.06,4.82-.18,9.65.1,14.45.2,3.33.94,5.05,4.79,4.88,1.8-.09,3.62,0,5.41-.19,1.15-.12,1.51.44,1.65,1.32.27,1.6,0,3.25.5,4.87.25.81-.74,1.49-1.48,1.73-3.62,1.16-7.33,2.24-11.14,2.06-3.08-.16-6.2-.64-8.66-3a10.66,10.66,0,0,1-3.09-7.29c-.22-3.11-.05-6.24-.05-9.36Z" transform="translate(-15.87 -193.1)"/><path class="cls-2" d="M321.66,251.13c0,3.84.11,7.67,0,11.5a4.14,4.14,0,0,0,2.49,4c2.82,1.6,3.5,3.4,2.19,6.34-.3.65-.88.52-1.42.52l-15.26-.07c-.61,0-1.21,0-1.81,0-3.84.2-3.45.42-3.51-3.46-.06-3.27,0-3.23,3.29-4a2.36,2.36,0,0,0,2.07-2.51c-.05-5.15,0-10.3,0-15.44a3.72,3.72,0,0,0-2.12-3.56c-.87-.48-2.25-.75-2.44-1.7a13.85,13.85,0,0,1,0-4.89c.15-.91,1.47-1.05,2.29-1.13,4.05-.41,8-1.69,12.09-1.56,1,0,1.26.27,1.63,1.24.9,2.41.51,4.84.58,7.26S321.66,248.67,321.66,251.13Z" transform="translate(-15.87 -193.1)"/><path class="cls-2" d="M311.54,230.65c-1.63.08-1.57-1.3-1.81-2.13a70,70,0,0,0-2-6.78c-.55-1.39,0-2.12,1.44-2.47,2.65-.65,5.29-1.35,7.89-2.19,2.4-.77,2.52-.76,3.33,1.59a57.61,57.61,0,0,1,2,7.77c.14.76,0,1.26-.62,1.43-2.73.75-5.47,1.48-8.25,2.08C312.82,230.11,312.26,230.76,311.54,230.65Z" transform="translate(-15.87 -193.1)"/><path class="cls-2" d="M71.33,208.52c2.17-3.39,4.27-6.7,6.38-10,.76-1.19,1.51-2.41,2.29-3.59a3.38,3.38,0,1,1,5.63,3.68c-3.25,5.11-6.49,10.23-9.77,15.32a1.39,1.39,0,0,0,0,1.78q22.05,34.56,44,69.14a1.54,1.54,0,0,0,1.61.9,10.28,10.28,0,0,1,1.57,0,3.43,3.43,0,0,1,3.44,3.53,3.34,3.34,0,0,1-3.5,3.19c-2.09,0-4.18,0-6.27,0H87.09c-9,0-17.94,0-26.92,0q-20.25,0-40.5-.05a4.64,4.64,0,0,1-1.74-.28,3.4,3.4,0,0,1-2-3.43,3.25,3.25,0,0,1,2.61-2.86,14.42,14.42,0,0,1,2.79-.14,1.39,1.39,0,0,0,1.36-.73q22.08-34.72,44.21-69.42a1.27,1.27,0,0,0,0-1.6q-4.92-7.63-9.75-15.33a4.58,4.58,0,0,1-.75-2.38,3.12,3.12,0,0,1,2.29-3,3.24,3.24,0,0,1,3.55,1.06,7.8,7.8,0,0,1,.78,1.1l7.65,12C70.82,207.78,71.05,208.1,71.33,208.52Zm41.12,77.14L71.32,221.08,30.19,285.66H54V284.4c0-6.32-.19-12.65.21-18.95a17.1,17.1,0,0,1,34.1.4c.3,6.16.11,12.34.14,18.51v1.3Zm-30.77,0V284.4q0-8.36,0-16.71a17.28,17.28,0,0,0-.1-1.9,10.46,10.46,0,0,0-20.84,1.36c-.07,5.86,0,11.73,0,17.6,0,.29,0,.58.07.91Z" transform="translate(-15.87 -193.1)"/><path class="cls-2" d="M84,289H58.6c0-.41-.1-.76-.1-1.11,0-7.14-.06-14.28,0-21.42a12.72,12.72,0,0,1,25.36-1.64,22.19,22.19,0,0,1,.12,2.31q0,10.16,0,20.32Z" transform="translate(-15.87 -193.1)"/></svg>